<svg width="401" height="163" viewBox="0 0 401 163" fill="none" xmlns="http://www.w3.org/2000/svg">
<path fill-rule="evenodd" clip-rule="evenodd" d="M107.034 95.1848H95.2066V12.2929C95.2351 10.8597 94.9773 9.43519 94.4483 8.10287C93.9193 6.77054 93.1297 5.5572 92.1257 4.53396C91.146 3.49614 89.9594 2.67548 88.6427 2.12504C87.3259 1.5746 85.9083 1.30665 84.4814 1.33849C82.7817 1.34541 81.1055 1.73561 79.5775 2.48007C78.0127 3.21479 76.6441 4.30958 75.5837 5.67484L2.5112 97.1903C0.854188 99.3214 -0.0308455 101.952 0.000821172 104.651C-0.00544502 106.068 0.28589 107.471 0.855969 108.768C1.42605 110.065 2.26216 111.229 3.31023 112.183C4.27156 113.182 5.42285 113.98 6.69653 114.528C7.97021 115.077 9.34063 115.365 10.7274 115.377H73.5753V150.588C73.5435 152.039 73.8064 153.481 74.3483 154.827C74.8902 156.174 75.6997 157.396 76.7278 158.42C77.7559 159.444 78.9812 160.249 80.3294 160.786C81.6777 161.322 83.1209 161.58 84.5716 161.543C85.9678 161.567 87.3533 161.295 88.6366 160.744C89.9199 160.193 91.0718 159.377 92.0161 158.348C93.0505 157.341 93.8677 156.133 94.4171 154.799C94.9666 153.464 95.2367 152.031 95.2109 150.588V115.378H107.038C109.736 115.45 112.356 114.467 114.341 112.638C115.319 111.705 116.088 110.577 116.6 109.327C117.111 108.076 117.352 106.732 117.308 105.382C117.345 104.019 117.1 102.664 116.59 101.4C116.08 100.136 115.314 98.9905 114.341 98.0355C113.374 97.0991 112.23 96.3646 110.976 95.8748C109.723 95.385 108.384 95.1497 107.038 95.1826L107.034 95.1848ZM73.5717 38.3103V95.1848H28.7543L73.5717 38.3103ZM200.792 162.92C213.14 162.92 223.683 159.45 232.421 152.511C241.159 145.572 247.749 135.993 252.19 123.774C256.631 111.555 258.852 97.4509 258.855 81.4603C258.857 65.4698 256.636 51.365 252.19 39.1461C247.746 26.9277 241.157 17.3485 232.421 10.4085C223.686 3.46856 213.143 -0.00096135 200.792 1.99809e-07C188.44 1.99809e-07 177.896 3.46952 169.162 10.4085C160.427 17.3476 153.838 26.9268 149.395 39.1461C144.95 51.3655 142.728 65.4703 142.73 81.4603C142.731 97.4504 144.953 111.555 149.395 123.774C153.836 135.993 160.425 145.572 169.163 152.511C177.901 159.45 188.445 162.92 200.793 162.92H200.792ZM389.729 95.1848H377.902V12.2929C377.931 10.8597 377.673 9.43519 377.144 8.10287C376.615 6.77054 375.825 5.5572 374.821 4.53396C373.842 3.49614 372.655 2.67548 371.338 2.12504C370.022 1.5746 368.604 1.30665 367.177 1.33849C365.477 1.34541 363.801 1.73561 362.273 2.48007C360.708 3.21479 359.34 4.30958 358.279 5.67484L285.207 97.1903C283.55 99.3214 282.665 101.952 282.697 104.651C282.69 106.068 282.982 107.471 283.552 108.768C284.122 110.065 284.958 111.229 286.006 112.183C286.967 113.182 288.119 113.98 289.392 114.528C290.666 115.077 292.036 115.365 293.423 115.377H356.271V150.588C356.239 152.039 356.502 153.481 357.044 154.827C357.586 156.174 358.395 157.396 359.424 158.42C360.452 159.444 361.677 160.249 363.025 160.786C364.373 161.322 365.817 161.58 367.267 161.543C368.664 161.567 370.049 161.295 371.332 160.744C372.616 160.193 373.768 159.377 374.712 158.348C375.746 157.341 376.563 156.133 377.113 154.799C377.662 153.464 377.932 152.031 377.907 150.588V115.378H389.734C392.432 115.45 395.051 114.467 397.035 112.638C398.014 111.706 398.784 110.578 399.296 109.327C399.808 108.077 400.05 106.732 400.007 105.382C400.043 104.019 399.798 102.663 399.286 101.399C398.775 100.135 398.009 98.9902 397.035 98.0355C396.069 97.099 394.925 96.3644 393.671 95.8746C392.418 95.3848 391.079 95.1496 389.734 95.1826V95.1826L389.729 95.1848ZM356.267 38.3103V95.1848H311.45L356.267 38.3103ZM175.15 125.585C169.051 115.175 165.795 100.503 165.795 81.464C165.795 62.4253 168.862 47.6905 174.999 37.2632C181.135 26.8359 189.732 21.6233 200.793 21.6233C211.855 21.6233 220.452 26.8366 226.588 37.2632C232.724 47.6898 235.792 62.4202 235.792 81.464C235.792 100.508 232.724 115.237 226.588 125.664C220.452 136.091 211.851 141.304 200.793 141.304C189.732 141.304 181.25 135.997 175.15 125.588" fill="#384459"/>
</svg>
